<svg width="388" height="334" viewBox="0 0 388 334" fill="none" xmlns="http://www.w3.org/2000/svg">
<path fill-rule="evenodd" clip-rule="evenodd" d="M136.357 34.5912C120.757 30.9912 109.309 38 105.857 45.0912C89.4017 78.8903 120.019 91.3291 126.637 94.0181C127.46 94.3523 127.912 94.5359 127.857 94.5911C107.357 115.091 84.3566 106.591 81.3566 105.091C68.1566 101.091 59.8566 85.4245 57.3566 78.0911C44.4483 25.9615 83.0571 9.55557 88.7405 7.14054L88.8566 7.09119C125.5 -8.50002 159 11 174.857 23.5912C176.52 24.7843 178.536 26.2509 180.683 27.8119L180.683 27.8121C188.432 33.4469 197.874 40.3132 198.5 40C229.7 11.2 270.523 2.92452 286.857 2.59119C349.357 -3.40881 377.857 44.5912 380.357 50.5912C400.357 93.5912 368.5 121.186 360.357 126.091C327.157 146.091 283.19 134.424 265.357 126.091C245.357 160.091 205.657 228.291 206.857 229.091C248.057 253.891 286.023 232.091 299.857 218.091C314.357 262.727 272.857 273.591 269.357 273.591C238.957 280.791 203.357 263.925 189.357 254.591C184.69 259.925 177.5 270.5 176.357 273.591C185.857 282.591 225.857 294.591 230.357 294.591C312.357 306.591 328.857 254.591 328.857 248.091C330.857 222.091 315.357 208.925 307.357 205.591C283.508 192.69 266.691 204.855 260.49 209.341C258.76 210.592 257.857 211.245 257.857 210.591C267.857 156.091 325.195 171.153 331.857 174.591C378.357 198.591 375.357 242.091 374.357 245.091C367.694 302.675 319.813 317.68 308.745 321.149C308.184 321.325 307.718 321.471 307.357 321.591C284.557 329.191 248.857 324.758 233.857 321.591C217.545 319.109 188.408 306.568 171.95 299.483L171.949 299.483L171.948 299.483L171.943 299.481C165.198 296.577 160.583 294.591 159.857 294.591C137.866 321.579 117.952 327.81 113.862 329.089L113.857 329.091C70.9999 342.5 52.649 317.5 49.3566 308.591C33.0039 264.343 76.3327 252.942 82.7714 251.248L82.7722 251.248L82.7731 251.248L82.7743 251.247C83.0278 251.181 83.2238 251.129 83.3566 251.091C110.557 246.291 136.023 256.091 145.357 261.591L159.857 239.091C146.19 231.758 118.657 217.291 117.857 218.091C92.8566 241.091 68.8566 248.091 66.8566 248.091C20.8566 265.091 2.99995 234.5 1.85662 229.091C-8.6067 179.592 47.0699 171.055 53.287 170.102L53.3566 170.091C73.5 167 97.5233 175.091 108.357 180.091C121.19 157.425 147.157 111.691 148.357 110.091C150.973 103.985 161.706 88.0729 170.034 75.7256C176.027 66.8398 180.775 59.8004 180.357 59.5912C159.983 41.0701 140.897 35.8414 136.994 34.7724L136.994 34.7723L136.993 34.7722C136.682 34.6869 136.467 34.6281 136.357 34.5912ZM94.8566 275.091C105.657 271.091 123.023 278.091 130.357 282.091C126.357 289.091 121.846 294.5 119.857 296.091C104 308.776 93.3566 302.591 89.8566 300.091C74.8566 285.091 92.8566 275.591 94.8566 275.091ZM208.357 80.5911C196.69 96.0911 181.669 119.591 171.357 136.091C164.527 147.018 158.113 158.773 152.585 168.905C145.97 181.026 140.625 190.823 137.357 194.091C136.557 194.091 162.357 206.758 175.357 213.091L237.357 105.091L208.357 80.5911ZM68.3565 195.591L90.3565 204.091C78.3565 223.591 66.8565 227.091 61.3565 227.091C44 227.091 42 216.5 42 210.5C45.5 193 61.1898 193.424 68.3565 195.591ZM223.357 63.0911C233.69 51.0911 260.357 26.4911 284.357 24.0911C286.357 23.5911 323.357 14.5911 348.857 44.0911C351.803 47.5 368.857 75.0912 337.357 99.5912C335.357 101.591 310.357 119.091 280.357 101.591C279.157 99.9912 295.19 83.5912 303.357 75.5912C309.357 70.2578 324.557 60.2911 337.357 63.0911C333.69 57.4245 321.761 46.5912 303.357 46.5912C296.5 46.5912 278 51 265.857 66.5912C264.953 67.7514 263.523 69.4435 261.826 71.4506C258.538 75.3405 254.249 80.4136 250.857 85.0912C243.523 80.2578 227.757 69.0911 223.357 63.0911Z" fill="black"/>
<path d="M105.857 45.0912L106.306 45.31L106.306 45.31L105.857 45.0912ZM136.357 34.5912L136.515 34.1168L136.492 34.1093L136.469 34.104L136.357 34.5912ZM126.637 94.0181L126.449 94.4813L126.449 94.4813L126.637 94.0181ZM127.857 94.5911L128.21 94.9447L128.21 94.9447L127.857 94.5911ZM81.3566 105.091L81.5802 104.644L81.5422 104.625L81.5016 104.613L81.3566 105.091ZM57.3566 78.0911L56.8713 78.2113L56.8764 78.2322L56.8834 78.2525L57.3566 78.0911ZM88.7405 7.14054L88.936 7.60072L88.9361 7.60069L88.7405 7.14054ZM88.8566 7.09119L89.0522 7.55133L89.0524 7.55127L88.8566 7.09119ZM174.857 23.5912L174.546 23.9827L174.555 23.9903L174.565 23.9975L174.857 23.5912ZM180.683 27.8119L180.983 27.4119L180.977 27.4076L180.683 27.8119ZM180.683 27.8121L180.383 28.2121L180.389 28.2164L180.683 27.8121ZM198.5 40L198.724 40.4472L198.787 40.4155L198.839 40.3674L198.5 40ZM286.857 2.59119L286.867 3.09108L286.886 3.0907L286.904 3.0889L286.857 2.59119ZM380.357 50.5912L379.895 50.7835L379.899 50.7929L379.903 50.802L380.357 50.5912ZM360.357 126.091L360.615 126.519L360.615 126.519L360.357 126.091ZM265.357 126.091L265.568 125.638L265.156 125.446L264.926 125.838L265.357 126.091ZM206.857 229.091L206.579 229.507L206.589 229.514L206.599 229.52L206.857 229.091ZM299.857 218.091L300.332 217.937L300.078 217.155L299.501 217.74L299.857 218.091ZM269.357 273.591V273.091H269.298L269.241 273.105L269.357 273.591ZM189.357 254.591L189.634 254.175L189.269 253.932L188.98 254.262L189.357 254.591ZM176.357 273.591L175.888 273.418L175.773 273.727L176.013 273.954L176.357 273.591ZM230.357 294.591L230.429 294.096L230.393 294.091H230.357V294.591ZM328.857 248.091L328.358 248.053L328.357 248.072V248.091H328.857ZM307.357 205.591L307.119 206.031L307.141 206.043L307.164 206.053L307.357 205.591ZM260.49 209.341L260.197 208.935L260.197 208.935L260.49 209.341ZM257.857 210.591L257.365 210.501L257.357 210.546V210.591H257.857ZM331.857 174.591L331.627 175.035L331.627 175.035L331.857 174.591ZM374.357 245.091L373.882 244.933L373.866 244.982L373.86 245.034L374.357 245.091ZM308.745 321.149L308.894 321.626L308.894 321.626L308.745 321.149ZM307.357 321.591L307.199 321.117L307.199 321.117L307.357 321.591ZM233.857 321.591L233.96 321.102L233.946 321.099L233.932 321.097L233.857 321.591ZM171.95 299.483L172.147 299.024L172.147 299.024L171.95 299.483ZM171.949 299.483L171.736 299.936L171.744 299.939L171.752 299.943L171.949 299.483ZM171.948 299.483L172.161 299.03L172.152 299.026L172.144 299.023L171.948 299.483ZM171.943 299.481L171.745 299.94L171.747 299.941L171.943 299.481ZM159.857 294.591V294.091H159.619L159.469 294.275L159.857 294.591ZM113.862 329.089L113.713 328.612L113.712 328.613L113.862 329.089ZM113.857 329.091L114.006 329.568L114.007 329.568L113.857 329.091ZM49.3566 308.591L49.8256 308.418L49.8256 308.418L49.3566 308.591ZM82.7714 251.248L82.8986 251.732L82.9087 251.729L82.7714 251.248ZM82.7722 251.248L82.6537 250.762L82.6442 250.765L82.6348 250.767L82.7722 251.248ZM82.7731 251.248L82.8916 251.734L82.9031 251.731L82.7731 251.248ZM82.7743 251.247L82.6471 250.764L82.6443 250.765L82.7743 251.247ZM83.3566 251.091L83.2697 250.599L83.2442 250.603L83.2192 250.61L83.3566 251.091ZM145.357 261.591L145.103 262.022L145.517 262.266L145.777 261.862L145.357 261.591ZM159.857 239.091L160.277 239.362L160.57 238.907L160.093 238.651L159.857 239.091ZM117.857 218.091L118.195 218.459L118.203 218.452L118.21 218.445L117.857 218.091ZM66.8566 248.091V247.591H66.7672L66.6833 247.622L66.8566 248.091ZM1.85662 229.091L2.34581 228.988L1.85662 229.091ZM53.287 170.102L53.2112 169.608L53.2112 169.608L53.287 170.102ZM53.3566 170.091L53.4324 170.585L53.4325 170.585L53.3566 170.091ZM108.357 180.091L108.147 180.545L108.565 180.738L108.792 180.338L108.357 180.091ZM148.357 110.091L148.757 110.391L148.793 110.343L148.816 110.288L148.357 110.091ZM170.034 75.7256L170.448 76.0052L170.448 76.0052L170.034 75.7256ZM180.357 59.5912L180.02 59.9612L180.071 60.0075L180.133 60.0384L180.357 59.5912ZM136.994 34.7724L136.836 35.2467L136.849 35.251L136.862 35.2546L136.994 34.7724ZM136.994 34.7723L137.152 34.298L137.134 34.2919L137.115 34.2872L136.994 34.7723ZM136.993 34.7722L136.861 35.2546L136.872 35.2573L136.993 34.7722ZM130.357 282.091L130.791 282.339L131.044 281.896L130.596 281.652L130.357 282.091ZM94.8566 275.091L94.9779 275.576L95.0045 275.57L95.0302 275.56L94.8566 275.091ZM119.857 296.091L120.169 296.482L120.169 296.482L119.857 296.091ZM89.8566 300.091L89.503 300.445L89.5323 300.474L89.566 300.498L89.8566 300.091ZM171.357 136.091L171.781 136.356L171.781 136.356L171.357 136.091ZM208.357 80.5911L208.679 80.2092L208.275 79.8678L207.957 80.2905L208.357 80.5911ZM152.585 168.905L152.146 168.665L152.146 168.665L152.585 168.905ZM137.357 194.091V194.591H137.564L137.71 194.445L137.357 194.091ZM175.357 213.091L175.138 213.541L175.558 213.745L175.79 213.34L175.357 213.091ZM237.357 105.091L237.79 105.34L237.998 104.978L237.679 104.709L237.357 105.091ZM90.3565 204.091L90.7823 204.353L91.0973 203.841L90.5367 203.625L90.3565 204.091ZM68.3565 195.591L68.5367 195.125L68.5192 195.118L68.5012 195.113L68.3565 195.591ZM42 210.5L41.5097 210.402L41.5 210.45L41.5 210.5L42 210.5ZM284.357 24.0911L284.406 24.5887L284.443 24.585L284.478 24.5762L284.357 24.0911ZM223.357 63.0911L222.978 62.7649L222.718 63.0662L222.953 63.3868L223.357 63.0911ZM348.857 44.0911L348.478 44.4181L348.478 44.4181L348.857 44.0911ZM337.357 99.5912L337.05 99.1965L337.025 99.2156L337.003 99.2376L337.357 99.5912ZM280.357 101.591L279.957 101.891L280.017 101.972L280.105 102.023L280.357 101.591ZM303.357 75.5912L303.024 75.2175L303.015 75.2255L303.007 75.234L303.357 75.5912ZM337.357 63.0911L337.25 63.5796L338.436 63.8391L337.776 62.8195L337.357 63.0911ZM265.857 66.5912L265.462 66.2839L265.462 66.2839L265.857 66.5912ZM261.826 71.4506L262.208 71.7734L262.208 71.7734L261.826 71.4506ZM250.857 85.0912L250.581 85.5086L250.981 85.7717L251.261 85.3847L250.857 85.0912ZM106.306 45.31C109.638 38.4654 120.828 31.5209 136.244 35.0784L136.469 34.104C120.685 30.4615 108.979 37.5346 105.407 44.8723L106.306 45.31ZM126.826 93.5548C123.515 92.2099 114.315 88.4658 107.978 80.8999C104.817 77.1266 102.375 72.409 101.728 66.5619C101.081 60.7132 102.225 53.6934 106.306 45.31L105.407 44.8723C101.261 53.3886 100.062 60.5982 100.734 66.6719C101.406 72.7471 103.947 77.6445 107.211 81.542C113.724 89.3175 123.141 93.1373 126.449 94.4813L126.826 93.5548ZM128.21 94.9447C128.311 94.8443 128.376 94.6945 128.358 94.5264C128.344 94.3885 128.278 94.2948 128.246 94.2541C128.182 94.1735 128.105 94.1234 128.074 94.1035C127.994 94.0525 127.888 94.0015 127.782 93.9537C127.562 93.854 127.232 93.72 126.826 93.5548L126.449 94.4813C126.865 94.6503 127.172 94.7752 127.37 94.8647C127.473 94.9115 127.522 94.9376 127.537 94.9471C127.553 94.9573 127.508 94.9333 127.462 94.8746C127.438 94.8449 127.378 94.7612 127.364 94.6321C127.347 94.473 127.41 94.3311 127.503 94.2376L128.21 94.9447ZM81.133 105.538C84.2198 107.082 107.488 115.666 128.21 94.9447L127.503 94.2376C107.225 114.516 84.4934 106.101 81.5802 104.644L81.133 105.538ZM56.8834 78.2525C58.1489 81.9646 60.8727 87.763 64.9455 93.1429C69.015 98.5186 74.4698 103.527 81.2116 105.57L81.5016 104.613C75.0434 102.656 69.7482 97.8303 65.7428 92.5393C61.7405 87.2526 59.0644 81.551 57.8299 77.9298L56.8834 78.2525ZM88.545 6.68036C85.6861 7.89517 74.5162 12.6399 65.6865 23.6602C56.8368 34.7053 50.3809 52.0003 56.8713 78.2113L57.842 77.971C51.424 52.0523 57.8184 35.0795 66.4669 24.2855C75.1353 13.4666 86.1115 8.80094 88.936 7.60072L88.545 6.68036ZM88.661 6.63104L88.5449 6.68039L88.9361 7.60069L89.0522 7.55133L88.661 6.63104ZM175.168 23.1996C159.276 10.5806 125.57 -9.07335 88.6608 6.6311L89.0524 7.55127C125.43 -7.92669 158.724 11.4194 174.546 23.9827L175.168 23.1996ZM180.977 27.4076C178.831 25.8468 176.813 24.3792 175.148 23.1849L174.565 23.9975C176.227 25.1895 178.242 26.6549 180.389 28.2163L180.977 27.4076ZM180.983 27.4121L180.983 27.4119L180.383 28.2119L180.383 28.2121L180.983 27.4121ZM198.276 39.5528C198.335 39.5237 198.385 39.5149 198.414 39.512C198.443 39.509 198.464 39.5108 198.47 39.5115C198.481 39.5127 198.473 39.513 198.437 39.5014C198.367 39.4786 198.256 39.4313 198.098 39.3513C197.786 39.1931 197.351 38.9383 196.808 38.5968C195.724 37.9159 194.251 36.9166 192.549 35.7267C189.146 33.3482 184.853 30.226 180.977 27.4077L180.389 28.2164C184.262 31.033 188.564 34.1613 191.976 36.5463C193.681 37.7382 195.17 38.749 196.275 39.4435C196.826 39.7897 197.292 40.064 197.646 40.2434C197.822 40.3321 197.985 40.4058 198.126 40.4519C198.196 40.4748 198.278 40.4965 198.362 40.5056C198.434 40.5135 198.577 40.5207 198.724 40.4472L198.276 39.5528ZM286.846 2.09129C270.423 2.42646 229.472 10.7301 198.161 39.6326L198.839 40.3674C229.928 11.6699 270.623 3.42259 286.867 3.09108L286.846 2.09129ZM380.818 50.3989C379.535 47.3191 371.732 33.7503 356.416 21.6982C341.082 9.6324 318.207 -0.920781 286.809 2.09347L286.904 3.0889C318.006 0.103154 340.631 10.55 355.797 22.4841C370.981 34.432 378.678 47.8633 379.895 50.7835L380.818 50.3989ZM360.615 126.519C364.754 124.026 374.826 115.835 381.357 102.851C387.901 89.8409 390.88 72.0315 380.81 50.3803L379.903 50.802C389.833 72.1508 386.884 89.6386 380.464 102.402C374.03 115.192 364.103 123.251 360.099 125.663L360.615 126.519ZM265.145 126.544C274.111 130.734 289.618 135.751 307.052 137.214C324.486 138.678 343.894 136.592 360.615 126.519L360.099 125.663C343.619 135.59 324.444 137.671 307.136 136.218C289.828 134.765 274.435 129.782 265.568 125.638L265.145 126.544ZM207.134 228.675C207.249 228.752 207.296 228.856 207.314 228.914C207.331 228.969 207.33 229.009 207.33 229.016C207.33 229.029 207.329 229.013 207.346 228.949C207.377 228.83 207.445 228.639 207.558 228.368C207.78 227.834 208.148 227.056 208.652 226.055C209.658 224.055 211.185 221.199 213.117 217.682C216.98 210.649 222.453 200.989 228.59 190.29C240.864 168.892 255.788 143.344 265.788 126.345L264.926 125.838C254.925 142.839 239.999 168.39 227.723 189.792C221.585 200.493 216.108 210.159 212.24 217.2C210.307 220.72 208.773 223.589 207.759 225.606C207.253 226.612 206.871 227.415 206.635 227.984C206.517 228.265 206.428 228.507 206.379 228.694C206.355 228.784 206.332 228.89 206.33 228.994C206.329 229.046 206.332 229.122 206.358 229.206C206.384 229.293 206.445 229.418 206.579 229.507L207.134 228.675ZM299.501 217.74C285.753 231.654 248.036 253.295 207.114 228.663L206.599 229.52C248.077 254.487 286.294 232.529 300.212 218.443L299.501 217.74ZM269.357 274.091C269.865 274.091 270.952 273.905 272.396 273.52C273.858 273.131 275.73 272.525 277.829 271.658C282.024 269.927 287.141 267.145 291.695 262.947C296.253 258.747 300.25 253.124 302.184 245.72C304.119 238.317 303.981 229.17 300.332 217.937L299.381 218.246C302.982 229.331 303.095 238.28 301.217 245.467C299.339 252.655 295.46 258.117 291.018 262.212C286.572 266.31 281.565 269.034 277.447 270.734C275.389 271.584 273.558 272.175 272.138 272.554C270.699 272.938 269.723 273.091 269.357 273.091V274.091ZM189.079 255.007C196.117 259.699 208.56 266.27 223.058 270.769C237.552 275.266 254.151 277.706 269.472 274.078L269.241 273.105C254.163 276.676 237.761 274.283 223.355 269.814C208.953 265.345 196.596 258.817 189.634 254.175L189.079 255.007ZM176.826 273.765C177.093 273.041 177.735 271.836 178.642 270.326C179.544 268.827 180.69 267.057 181.948 265.214C184.466 261.525 187.418 257.566 189.733 254.92L188.98 254.262C186.629 256.95 183.652 260.945 181.122 264.65C179.857 266.504 178.699 268.291 177.785 269.811C176.878 271.32 176.191 272.596 175.888 273.418L176.826 273.765ZM230.357 294.091C229.858 294.091 228.795 293.918 227.243 293.57C225.711 293.227 223.752 292.725 221.491 292.094C216.971 290.831 211.262 289.053 205.397 286.994C199.531 284.935 193.516 282.597 188.379 280.216C183.227 277.827 179.011 275.418 176.7 273.228L176.013 273.954C178.452 276.265 182.799 278.731 187.959 281.123C193.135 283.523 199.182 285.872 205.066 287.938C210.951 290.004 216.68 291.789 221.222 293.057C223.493 293.691 225.47 294.198 227.025 294.546C228.559 294.89 229.73 295.091 230.357 295.091V294.091ZM328.357 248.091C328.357 248.83 328.116 250.298 327.509 252.303C326.906 254.295 325.952 256.786 324.551 259.561C321.748 265.112 317.162 271.791 310.031 277.899C295.785 290.101 271.312 300.079 230.429 294.096L230.284 295.086C271.401 301.103 296.178 291.081 310.682 278.658C317.926 272.454 322.59 265.664 325.444 260.012C326.87 257.186 327.846 254.641 328.466 252.592C329.082 250.556 329.357 248.977 329.357 248.091H328.357ZM307.164 206.053C314.994 209.315 330.339 222.298 328.358 248.053L329.355 248.13C331.374 221.885 315.719 208.534 307.549 205.13L307.164 206.053ZM260.783 209.746C263.879 207.506 269.567 203.395 277.427 201.431C285.27 199.471 295.308 199.642 307.119 206.031L307.595 205.151C295.557 198.639 285.262 198.442 277.184 200.461C269.123 202.475 263.302 206.689 260.197 208.935L260.783 209.746ZM257.357 210.591C257.357 210.718 257.376 210.894 257.482 211.053C257.605 211.239 257.793 211.327 257.975 211.345C258.134 211.361 258.282 211.325 258.395 211.286C258.514 211.246 258.638 211.187 258.762 211.121C259.241 210.863 259.933 210.36 260.783 209.746L260.197 208.935C259.317 209.572 258.693 210.022 258.288 210.24C258.19 210.293 258.12 210.323 258.073 210.34C258.019 210.358 258.028 210.346 258.075 210.35C258.145 210.357 258.248 210.399 258.315 210.5C258.365 210.575 258.357 210.628 258.357 210.591H257.357ZM332.086 174.147C330.352 173.252 325.46 171.655 318.97 170.608C312.465 169.558 304.305 169.051 296.03 170.37C287.752 171.69 279.342 174.84 272.367 181.119C265.387 187.402 259.882 196.784 257.365 210.501L258.348 210.681C260.832 197.148 266.243 187.976 273.036 181.862C279.832 175.744 288.047 172.656 296.187 171.358C304.329 170.06 312.378 170.557 318.81 171.595C325.257 172.636 330.03 174.211 331.627 175.035L332.086 174.147ZM374.831 245.249C374.979 244.804 375.137 243.735 375.224 242.213C375.312 240.669 375.33 238.61 375.176 236.154C374.869 231.241 373.877 224.726 371.392 217.552C366.417 203.195 355.462 186.212 332.086 174.147L331.627 175.035C354.751 186.97 365.546 203.737 370.447 217.88C372.898 224.956 373.876 231.379 374.178 236.216C374.329 238.634 374.311 240.654 374.226 242.156C374.139 243.681 373.984 244.628 373.882 244.933L374.831 245.249ZM308.894 321.626C319.973 318.154 368.152 303.063 374.853 245.149L373.86 245.034C367.236 302.287 319.652 317.207 308.595 320.672L308.894 321.626ZM307.515 322.066C307.871 321.947 308.332 321.802 308.894 321.626L308.595 320.672C308.036 320.847 307.565 320.995 307.199 321.117L307.515 322.066ZM233.753 322.08C241.279 323.669 253.982 325.573 267.661 326.128C281.332 326.683 296.029 325.894 307.515 322.066L307.199 321.117C295.885 324.888 281.332 325.682 267.702 325.129C254.082 324.576 241.434 322.68 233.96 321.102L233.753 322.08ZM171.752 299.943C179.98 303.484 191.388 308.395 202.78 312.73C214.162 317.062 225.568 320.836 233.781 322.086L233.932 321.097C225.834 319.865 214.516 316.127 203.136 311.796C191.767 307.469 180.378 302.567 172.147 299.024L171.752 299.943ZM171.752 299.943L171.753 299.943L172.147 299.024L172.146 299.024L171.752 299.943ZM171.735 299.935L171.736 299.936L172.162 299.031L172.161 299.03L171.735 299.935ZM171.747 299.941L171.753 299.943L172.144 299.023L172.138 299.02L171.747 299.941ZM159.857 295.091C159.853 295.091 159.876 295.092 159.939 295.104C159.997 295.116 160.073 295.135 160.17 295.163C160.363 295.218 160.618 295.303 160.933 295.417C161.563 295.645 162.41 295.981 163.452 296.41C165.536 297.267 168.371 298.488 171.745 299.94L172.141 299.021C168.77 297.57 165.925 296.346 163.833 295.485C162.788 295.054 161.924 294.712 161.273 294.477C160.948 294.359 160.67 294.266 160.446 294.202C160.239 294.142 160.026 294.091 159.857 294.091V295.091ZM114.011 329.567C118.165 328.267 138.175 321.992 160.244 294.907L159.469 294.275C137.558 321.166 117.738 327.353 113.713 328.612L114.011 329.567ZM114.007 329.568L114.013 329.566L113.712 328.613L113.706 328.614L114.007 329.568ZM48.8876 308.765C50.5727 313.324 56.0605 321.899 66.5293 327.649C77.0192 333.409 92.4641 336.308 114.006 329.568L113.707 328.614C92.3925 335.283 77.2335 332.386 67.0107 326.772C56.7667 321.146 51.4329 312.767 49.8256 308.418L48.8876 308.765ZM82.6441 250.765C79.4214 251.613 66.8738 254.909 57.1836 263.589C52.3298 267.937 48.1814 273.646 46.2889 281.079C44.3962 288.513 44.7715 297.627 48.8876 308.765L49.8256 308.418C45.7654 297.431 45.4246 288.527 47.258 281.326C49.0916 274.124 53.1117 268.579 57.8508 264.334C67.3465 255.828 79.6826 252.578 82.8986 251.732L82.6441 250.765ZM82.6348 250.767L82.634 250.767L82.9087 251.729L82.9095 251.729L82.6348 250.767ZM82.6546 250.762L82.6537 250.762L82.8906 251.734L82.8916 251.733L82.6546 250.762ZM82.6443 250.765L82.6431 250.765L82.9031 251.731L82.9043 251.73L82.6443 250.765ZM83.2192 250.61C83.0928 250.647 82.903 250.697 82.6471 250.764L82.9015 251.731C83.1525 251.665 83.3549 251.612 83.494 251.572L83.2192 250.61ZM145.61 261.16C136.207 255.619 110.619 245.772 83.2697 250.599L83.4435 251.584C110.494 246.81 135.84 256.564 145.103 262.022L145.61 261.16ZM159.436 238.82L144.936 261.32L145.777 261.862L160.277 239.362L159.436 238.82ZM118.21 218.445C118.127 218.528 118.04 218.549 118.013 218.555C117.982 218.561 117.967 218.559 117.982 218.559C118.009 218.561 118.074 218.57 118.186 218.599C118.405 218.655 118.726 218.764 119.149 218.929C119.989 219.256 121.172 219.779 122.623 220.457C125.522 221.811 129.46 223.771 133.804 225.987C142.492 230.418 152.789 235.866 159.62 239.532L160.093 238.651C153.258 234.983 142.955 229.531 134.259 225.096C129.912 222.878 125.962 220.913 123.046 219.551C121.59 218.87 120.384 218.337 119.512 217.997C119.078 217.828 118.713 217.702 118.434 217.63C118.297 217.595 118.16 217.568 118.036 217.561C117.974 217.558 117.896 217.558 117.815 217.575C117.737 217.59 117.611 217.63 117.503 217.738L118.21 218.445ZM66.8566 248.591C67.1819 248.591 67.8377 248.463 68.7243 248.229C69.6355 247.989 70.8471 247.621 72.3176 247.11C75.2593 246.088 79.2471 244.486 83.9528 242.165C93.3643 237.522 105.655 229.996 118.195 218.459L117.518 217.723C105.058 229.187 92.8488 236.661 83.5104 241.268C78.8411 243.571 74.8914 245.157 71.9893 246.166C70.538 246.67 69.3512 247.03 68.4694 247.262C67.563 247.501 67.0313 247.591 66.8566 247.591V248.591ZM1.36743 229.195C1.67492 230.649 3.05349 233.644 5.62825 237.035C8.21478 240.441 12.0377 244.287 17.2786 247.424C27.7804 253.709 43.9049 257.106 67.0299 248.56L66.6833 247.622C43.8083 256.076 28.0045 252.678 17.7921 246.565C12.6759 243.503 8.94533 239.75 6.42467 236.43C3.89225 233.095 2.60999 230.238 2.34581 228.988L1.36743 229.195ZM53.2112 169.608C50.0961 170.085 34.5325 172.469 21.05 180.969C14.3023 185.223 8.0533 191.023 4.15593 198.904C0.255054 206.792 -1.26883 216.723 1.36743 229.195L2.34581 228.988C-0.249586 216.71 1.26236 207.011 5.05231 199.347C8.84577 191.676 14.9426 186.002 21.5833 181.815C34.8775 173.433 50.2607 171.072 53.3627 170.596L53.2112 169.608ZM53.2809 169.597L53.2112 169.608L53.3627 170.596L53.4324 170.585L53.2809 169.597ZM108.566 179.637C103.121 177.124 94.3736 173.839 84.4595 171.57C74.5493 169.301 63.4388 168.038 53.2808 169.597L53.4325 170.585C63.4178 169.053 74.3907 170.29 84.2363 172.544C94.0779 174.797 102.759 178.059 108.147 180.545L108.566 179.637ZM147.957 109.791C147.785 110.02 147.228 110.946 146.389 112.376C145.538 113.825 144.374 115.833 142.972 118.267C140.168 123.134 136.408 129.71 132.285 136.944C124.039 151.411 114.338 168.511 107.922 179.845L108.792 180.338C115.208 169.004 124.908 151.905 133.154 137.439C137.276 130.206 141.035 123.631 143.838 118.766C145.24 116.333 146.402 114.328 147.251 112.882C148.111 111.416 148.629 110.562 148.757 110.391L147.957 109.791ZM169.619 75.4461C165.456 81.6187 160.688 88.6881 156.633 94.978C152.588 101.254 149.225 106.795 147.897 109.894L148.816 110.288C150.105 107.281 153.417 101.813 157.474 95.5198C161.522 89.2403 166.284 82.1799 170.448 76.0052L169.619 75.4461ZM180.133 60.0384C179.951 59.9473 179.899 59.7825 179.887 59.7084C179.881 59.6717 179.882 59.6441 179.883 59.6311C179.883 59.6238 179.884 59.6184 179.885 59.6151C179.885 59.6118 179.885 59.6099 179.886 59.6097C179.886 59.6095 179.885 59.6135 179.882 59.6224C179.88 59.6311 179.876 59.6429 179.87 59.6581C179.859 59.6888 179.844 59.7285 179.822 59.7781C179.732 59.9819 179.569 60.2894 179.33 60.7002C178.857 61.5166 178.122 62.6848 177.181 64.1321C175.3 67.0245 172.617 71.0017 169.619 75.4461L170.448 76.0052C173.444 71.5638 176.132 67.5784 178.019 64.6773C178.961 63.2279 179.709 62.0416 180.196 61.2016C180.437 60.7842 180.623 60.438 180.736 60.182C180.791 60.0588 180.841 59.9283 180.865 59.8088C180.877 59.7522 180.891 59.6583 180.875 59.5529C180.857 59.4394 180.789 59.2481 180.58 59.144L180.133 60.0384ZM136.862 35.2546C140.728 36.3138 159.73 41.5152 180.02 59.9612L180.693 59.2212C160.237 40.625 141.065 35.3691 137.126 34.2901L136.862 35.2546ZM136.836 35.2467L136.836 35.2467L137.152 34.298L137.152 34.298L136.836 35.2467ZM136.872 35.2573L136.873 35.2574L137.115 34.2872L137.115 34.2872L136.872 35.2573ZM136.199 35.0655C136.326 35.108 136.559 35.1716 136.861 35.2545L137.126 34.29C136.805 34.2023 136.609 34.1483 136.515 34.1168L136.199 35.0655ZM130.596 281.652C126.9 279.636 120.687 276.87 114.035 275.108C107.401 273.351 100.233 272.567 94.6829 274.622L95.0302 275.56C100.28 273.616 107.195 274.331 113.779 276.075C120.343 277.813 126.48 280.546 130.117 282.53L130.596 281.652ZM120.169 296.482C121.211 295.648 122.866 293.859 124.748 291.425C126.638 288.982 128.779 285.86 130.791 282.339L129.922 281.843C127.935 285.322 125.82 288.405 123.957 290.814C122.086 293.232 120.491 294.943 119.544 295.701L120.169 296.482ZM89.566 300.498C91.3544 301.775 94.9822 304.005 100.196 304.285C105.42 304.566 112.162 302.887 120.169 296.482L119.544 295.701C111.694 301.981 105.187 303.552 100.25 303.286C95.3028 303.02 91.8588 300.907 90.1472 299.684L89.566 300.498ZM94.7353 274.606C94.4265 274.683 93.8839 274.909 93.2234 275.249C92.5506 275.596 91.7236 276.077 90.8385 276.687C89.072 277.905 87.0496 279.65 85.5656 281.876C84.0774 284.109 83.123 286.838 83.5326 289.992C83.9416 293.14 85.7009 296.643 89.503 300.445L90.2101 299.738C86.5123 296.04 84.8966 292.73 84.5243 289.863C84.1527 287.001 85.0108 284.511 86.3976 282.431C87.7886 280.345 89.7037 278.684 91.406 277.511C92.2552 276.925 93.0454 276.466 93.6812 276.138C94.3293 275.805 94.7867 275.624 94.9779 275.576L94.7353 274.606ZM171.781 136.356C182.094 119.855 197.104 96.3722 208.756 80.8918L207.957 80.2905C196.276 95.8101 181.244 119.327 170.933 135.826L171.781 136.356ZM153.024 169.144C158.553 159.011 164.961 147.268 171.781 136.356L170.933 135.826C164.094 146.767 157.673 158.536 152.146 168.665L153.024 169.144ZM137.71 194.445C139.397 192.758 141.58 189.436 144.147 185.071C146.724 180.69 149.718 175.203 153.024 169.144L152.146 168.665C148.837 174.728 145.852 180.2 143.285 184.564C140.708 188.946 138.585 192.156 137.003 193.738L137.71 194.445ZM175.576 212.642C169.076 209.475 159.377 204.726 151.404 200.768C147.417 198.789 143.863 197.009 141.357 195.724C140.103 195.081 139.115 194.565 138.467 194.209C138.141 194.03 137.911 193.898 137.777 193.813C137.701 193.765 137.688 193.751 137.7 193.763C137.705 193.768 137.725 193.786 137.748 193.817C137.76 193.834 137.83 193.928 137.838 194.073C137.842 194.159 137.825 194.262 137.765 194.359C137.706 194.453 137.629 194.509 137.569 194.539C137.466 194.592 137.374 194.591 137.357 194.591V193.591C137.327 193.591 137.226 193.592 137.116 193.648C137.053 193.68 136.974 193.737 136.914 193.833C136.852 193.933 136.834 194.039 136.839 194.128C136.848 194.279 136.921 194.381 136.94 194.406C136.969 194.446 136.998 194.476 137.016 194.492C137.08 194.552 137.168 194.611 137.24 194.657C137.403 194.761 137.658 194.906 137.986 195.086C138.647 195.448 139.645 195.971 140.9 196.614C143.413 197.902 146.971 199.685 150.959 201.664C158.936 205.623 168.637 210.374 175.138 213.541L175.576 212.642ZM236.923 104.842L174.923 212.842L175.79 213.34L237.79 105.34L236.923 104.842ZM208.034 80.9731L237.034 105.473L237.679 104.709L208.679 80.2092L208.034 80.9731ZM90.5367 203.625L68.5367 195.125L68.1763 196.058L90.1763 204.558L90.5367 203.625ZM61.3565 227.591C67.0801 227.591 78.721 223.953 90.7823 204.353L89.9307 203.829C77.992 223.229 66.6329 226.591 61.3565 226.591V227.591ZM41.5 210.5C41.5 213.542 42.0041 217.826 44.7764 221.354C47.5667 224.906 52.5723 227.591 61.3565 227.591V226.591C52.7842 226.591 48.1116 223.981 45.5627 220.737C42.9959 217.47 42.5 213.458 42.5 210.5L41.5 210.5ZM68.5012 195.113C64.8512 194.009 59.0245 193.343 53.6404 195.198C48.2147 197.067 43.2941 201.48 41.5097 210.402L42.4903 210.598C44.2058 202.02 48.8802 197.895 53.9661 196.143C59.0936 194.377 64.6952 195.007 68.2118 196.07L68.5012 195.113ZM284.307 23.5936C272.174 24.8069 259.42 31.619 248.438 39.5864C237.445 47.5616 228.167 56.7387 222.978 62.7649L223.735 63.4174C228.88 57.4436 238.101 48.3207 249.025 40.3959C259.96 32.4633 272.539 25.7754 284.406 24.5887L284.307 23.5936ZM349.235 43.7642C323.527 14.0236 286.244 23.1038 284.235 23.6061L284.478 24.5762C286.469 24.0785 323.186 15.1587 348.478 44.4181L349.235 43.7642ZM337.664 99.9858C353.54 87.6375 357.229 74.4565 356.523 63.8986C355.82 53.3866 350.767 45.5366 349.235 43.7642L348.478 44.4181C349.893 46.0545 354.839 53.7045 355.525 63.9653C356.208 74.1803 352.673 87.0449 337.05 99.1965L337.664 99.9858ZM280.105 102.023C295.233 110.848 309.118 110.852 319.472 108.39C324.645 107.16 328.935 105.315 332.06 103.65C335.171 101.992 337.159 100.496 337.71 99.9447L337.003 99.2376C336.554 99.6863 334.667 101.128 331.59 102.767C328.528 104.399 324.318 106.21 319.241 107.417C309.096 109.83 295.481 109.835 280.609 101.159L280.105 102.023ZM303.007 75.234C298.92 79.2373 292.863 85.3439 287.976 90.6525C285.534 93.3053 283.376 95.7678 281.9 97.6725C281.165 98.6222 280.586 99.4498 280.227 100.102C280.049 100.425 279.912 100.73 279.843 101C279.781 101.244 279.739 101.6 279.957 101.891L280.757 101.291C280.825 101.382 280.767 101.423 280.812 101.247C280.85 101.097 280.942 100.877 281.103 100.584C281.424 100.001 281.965 99.2226 282.691 98.2848C284.14 96.4145 286.275 93.9771 288.712 91.3298C293.583 86.0384 299.627 79.945 303.706 75.9483L303.007 75.234ZM337.463 62.6027C330.91 61.1691 323.791 63.0089 317.599 65.8363C311.398 68.6678 306.057 72.5219 303.024 75.2175L303.689 75.9649C306.656 73.3271 311.915 69.5312 318.014 66.746C324.123 63.9567 331.003 62.2132 337.25 63.5796L337.463 62.6027ZM303.357 47.0912C321.563 47.0912 333.346 57.8131 336.937 63.3628L337.776 62.8195C334.034 57.0359 321.959 46.0912 303.357 46.0912V47.0912ZM266.251 66.8984C272.261 59.1824 279.848 54.2283 286.789 51.2028C293.738 48.174 300.009 47.0912 303.357 47.0912V46.0912C299.848 46.0912 293.441 47.2127 286.389 50.2861C279.331 53.3628 271.596 58.4088 265.462 66.2839L266.251 66.8984ZM262.208 71.7734C263.901 69.7701 265.34 68.0685 266.251 66.8984L265.462 66.2839C264.566 67.4343 263.144 69.117 261.444 71.1279L262.208 71.7734ZM251.261 85.3847C254.641 80.7249 258.917 75.6663 262.208 71.7734L261.444 71.1279C258.158 75.0147 253.857 80.1022 250.452 84.7976L251.261 85.3847ZM222.953 63.3868C225.202 66.4535 230.302 70.786 235.702 74.9255C241.122 79.0799 246.907 83.0868 250.581 85.5086L251.132 84.6737C247.473 82.2622 241.708 78.269 236.311 74.1318C230.894 69.9796 225.911 65.7287 223.76 62.7955L222.953 63.3868Z" fill="black"/>
</svg>
